<svg xmlns="http://www.w3.org/2000/svg" xmlns:xlink="http://www.w3.org/1999/xlink" xmlns:lucid="lucid" width="1532.53" height="973"><g transform="translate(-113.25421300230653 -193.49999999999994)" lucid:page-tab-id="uDe-dIt-NWfS"><path d="M133.25 213.5h402.63v84.82H133.25zM535.88 213.5H719.6v84.82H535.9zM719.6 213.5h180.34v84.82H719.6z" fill="#6e757d"/><path d="M899.94 213.5h182.6v84.82h-182.6z" fill="#6e757d"/><path d="M1082.53 213.5h180.33v84.82h-180.33zM1262.86 213.5h181.47v84.82h-181.47z" fill="#6e757d"/><path d="M1444.33 213.5h181.46v84.82h-181.47z" fill="#6e757d"/><path d="M133.25 298.32h402.63v84.82H133.25z" fill="#fff"/><path d="M535.88 298.32h364.06v84.82H535.88z" fill="#ff8f8f"/><path d="M899.94 298.32h182.6v84.82h-182.6z" fill="#fff"/><path d="M1082.53 298.32h180.33v84.82h-180.33zM1262.86 298.32h181.47v84.82h-181.47z" fill="#fff"/><path d="M1444.33 298.32h181.46v84.82h-181.47z" fill="#fff"/><path d="M133.25 383.14h402.63v84.8H133.25z" fill="#e5e5e5"/><path d="M535.88 383.14h546.65v84.8H535.88z" fill="#ff8f8f"/><path d="M1082.53 383.14h180.33v84.8h-180.33z" fill="#dfe3e8"/><path d="M1262.86 383.14h181.47v84.8h-181.47z" fill="#e5e5e5"/><path d="M1444.33 383.14h181.46v84.8h-181.47z" fill="#e5e5e5"/><path d="M133.25 467.95h402.63v84.82H133.25z" fill="#fff"/><path d="M535.88 467.95h364.06v84.82H535.88z" fill="#ff8f8f"/><path d="M899.94 467.95h182.6v84.82h-182.6z" fill="#fff"/><path d="M1082.53 467.95h180.33v84.82h-180.33zM1262.86 467.95h181.47v84.82h-181.47z" fill="#fff"/><path d="M1444.33 467.95h181.46v84.82h-181.47z" fill="#fff"/><path d="M133.25 552.77h402.63v84.82H133.25zM535.88 552.77H719.6v84.82H535.9zM719.6 552.77h180.34v84.82H719.6z" fill="#e5e5e5"/><path d="M899.94 552.77h362.92v84.82H899.94z" fill="#ffdda6"/><path d="M1262.86 552.77h181.47v84.82h-181.47z" fill="#dfe3e8"/><path d="M1444.33 552.77h181.46v84.82h-181.47z" fill="#e5e5e5"/><path d="M133.25 637.6h402.63v84.8H133.25zM535.88 637.6H719.6v84.8H535.9zM719.6 637.6h180.34v84.8H719.6z" fill="#fff"/><path d="M899.94 637.6h544.4v84.8h-544.4z" fill="#ffdda6"/><path d="M1444.33 637.6h181.46v84.8h-181.47z" fill="#fff"/><path d="M133.25 722.4h402.63v84.83H133.25zM535.88 722.4H719.6v84.83H535.9zM719.6 722.4h180.34v84.83H719.6z" fill="#e5e5e5"/><path d="M899.94 722.4h182.6v84.83h-182.6z" fill="#e5e5e5"/><path d="M1082.53 722.4h361.8v84.83h-361.8z" fill="#ffdda6"/><path d="M1444.33 722.4h181.46v84.83h-181.47z" fill="#dfe3e8"/><path d="M133.25 807.23h402.63v84.82H133.25zM535.88 807.23H719.6v84.82H535.9zM719.6 807.23h180.34v84.82H719.6z" fill="#fff"/><path d="M899.94 807.23h182.6v84.82h-182.6z" fill="#fff"/><path d="M1082.53 807.23h361.8v84.82h-361.8z" fill="#c3f7c8"/><path d="M1444.33 807.23h181.46v84.82h-181.47z" fill="#fff"/><path d="M133.25 892.05h402.63v84.8H133.25zM535.88 892.05H719.6v84.8H535.9zM719.6 892.05h180.34v84.8H719.6z" fill="#e5e5e5"/><path d="M899.94 892.05h182.6v84.8h-182.6z" fill="#e5e5e5"/><path d="M1082.53 892.05h180.33v84.8h-180.33z" fill="#e5e5e5"/><path d="M1262.86 892.05h362.93v84.8h-362.94z" fill="#c3f7c8"/><path d="M133.25 976.86h402.63v84.82H133.25z" fill="#fff"/><path d="M535.88 976.86h546.65v84.82H535.88z" fill="#c3f7c8"/><path d="M1082.53 976.86h180.33v84.82h-180.33zM1262.86 976.86h181.47v84.82h-181.47z" fill="#fff"/><path d="M1444.33 976.86h181.46v84.82h-181.47z" fill="#fff"/><path d="M133.25 1061.68h402.63v84.82H133.25z" fill="#e5e5e5"/><path d="M535.88 1061.68h908.45v84.82H535.88z" fill="#c3f7c8"/><path d="M1444.33 1061.68h181.46v84.82h-181.47z" fill="#e5e5e5"/><path d="M133.25 213.5v84.82M535.88 213.5v84.82M719.6 213.5v84.82M899.94 213.5v84.82M1082.53 213.5v84.82M1262.86 213.5v84.82M1444.33 213.5v84.82M1625.8 213.5v84.82M133.25 298.32v84.82M535.88 298.32v84.82M899.94 298.32v84.82M1082.53 298.32v84.82M1262.86 298.32v84.82M1444.33 298.32v84.82M1625.8 298.32v84.82M133.25 383.14v84.8M535.88 383.14v84.8M1082.53 383.14v84.8M1262.86 383.14v84.8M1444.33 383.14v84.8M1625.8 383.14v84.8M133.25 467.95v84.82M535.88 467.95v84.82M899.94 467.95v84.82M1082.53 467.95v84.82M1262.86 467.95v84.82M1444.33 467.95v84.82M1625.8 467.95v84.82M133.25 552.77v84.82M535.88 552.77v84.82M719.6 552.77v84.82M899.94 552.77v84.82M1262.86 552.77v84.82M1444.33 552.77v84.82M1625.8 552.77v84.82M133.25 637.6v84.8M535.88 637.6v84.8M719.6 637.6v84.8M899.94 637.6v84.8M1444.33 637.6v84.8M1625.8 637.6v84.8M133.25 722.4v84.83M535.88 722.4v84.83M719.6 722.4v84.83M899.94 722.4v84.83M1082.53 722.4v84.83M1444.33 722.4v84.83M1625.8 722.4v84.83M133.25 807.23v84.82M535.88 807.23v84.82M719.6 807.23v84.82M899.94 807.23v84.82M1082.53 807.23v84.82M1444.33 807.23v84.82M1625.8 807.23v84.82M133.25 892.05v84.8M535.88 892.05v84.8M719.6 892.05v84.8M899.94 892.05v84.8M1082.53 892.05v84.8M1262.86 892.05v84.8M1625.8 892.05v84.8M133.25 976.86v84.82M535.88 976.86v84.82M1082.53 976.86v84.82M1262.86 976.86v84.82M1444.33 976.86v84.82M1625.8 976.86v84.82M133.25 1061.68v84.82M535.88 1061.68v84.82M1444.33 1061.68v84.82M1625.8 1061.68v84.82M133.25 213.5h402.63M535.88 213.5H719.6M719.6 213.5h180.34M899.94 213.5h182.6M1082.53 213.5h180.33M1262.86 213.5h181.47M1444.33 213.5h181.46M133.25 298.32h402.63M535.88 298.32h364.06M899.94 298.32h182.6M1082.53 298.32h180.33M1262.86 298.32h181.47M1444.33 298.32h181.46M133.25 383.14h402.63M535.88 383.14h546.65M1082.53 383.14h180.33M1262.86 383.14h181.47M1444.33 383.14h181.46M133.25 467.95h402.63M535.88 467.95h364.06M899.94 467.95h182.6M1082.53 467.95h180.33M1262.86 467.95h181.47M1444.33 467.95h181.46M133.25 552.77h402.63M535.88 552.77H719.6M719.6 552.77h180.34M899.94 552.77h362.92M1262.86 552.77h181.47M1444.33 552.77h181.46M133.25 637.6h402.63M535.88 637.6H719.6M719.6 637.6h180.34M899.94 637.6h544.4M1444.33 637.6h181.46M133.25 722.4h402.63M535.88 722.4H719.6M719.6 722.4h180.34M899.94 722.4h182.6M1082.53 722.4h361.8M1444.33 722.4h181.46M133.25 807.23h402.63M535.88 807.23H719.6M719.6 807.23h180.34M899.94 807.23h182.6M1082.53 807.23h361.8M1444.33 807.23h181.46M133.25 892.05h402.63M535.88 892.05H719.6M719.6 892.05h180.34M899.94 892.05h182.6M1082.53 892.05h180.33M1262.86 892.05h362.93M133.25 976.86h402.63M535.88 976.86h546.65M1082.53 976.86h180.33M1262.86 976.86h181.47M1444.33 976.86h181.46M133.25 1061.68h402.63M133.25 1146.5h402.63M535.88 1061.68h908.45M535.88 1146.5h908.45M1444.33 1061.68h181.46M1444.33 1146.5h181.46" stroke="#333" fill="none"/><use xlink:href="#a" transform="matrix(1,0,0,1,540.8755175252068,218.49999999999994) translate(67.89506172839506 41.94444444444444)"/><use xlink:href="#b" transform="matrix(1,0,0,1,724.6069297300234,218.49999999999994) translate(65.80864197530865 41.94444444444444)"/><use xlink:href="#c" transform="matrix(1,0,0,1,904.9359083754913,218.49999999999994) translate(53.845679012345684 41.94444444444444)"/><use xlink:href="#d" transform="matrix(1,0,0,1,1087.533176060525,218.49999999999994) translate(60.25308641975309 41.94444444444444)"/><use xlink:href="#e" transform="matrix(1,0,0,1,1267.862154705993,218.49999999999994) translate(64.42592592592592 41.94444444444444)"/><use xlink:href="#f" transform="matrix(1,0,0,1,1449.325277871244,218.49999999999994) translate(60.135802469135804 41.94444444444444)"/><use xlink:href="#g" transform="matrix(1,0,0,1,138.25421300230653,303.31818181818176) translate(11.2 43.544444444444444)"/><use xlink:href="#h" transform="matrix(1,0,0,1,138.25421300230653,303.31818181818176) translate(55.644444444444446 43.544444444444444)"/><use xlink:href="#i" transform="matrix(1,0,0,1,138.25421300230653,388.1363636363636) translate(11.2 43.544444444444444)"/><use xlink:href="#h" transform="matrix(1,0,0,1,138.25421300230653,388.1363636363636) translate(71.69382716049383 43.544444444444444)"/><use xlink:href="#j" transform="matrix(1,0,0,1,138.25421300230653,472.9545454545455) translate(11.2 43.544444444444444)"/><use xlink:href="#k" transform="matrix(1,0,0,1,138.25421300230653,472.9545454545455) translate(93.85432098765432 43.544444444444444)"/><use xlink:href="#l" transform="matrix(1,0,0,1,138.25421300230653,557.7727272727273) translate(11.2 43.544444444444444)"/><use xlink:href="#m" transform="matrix(1,0,0,1,138.25421300230653,557.7727272727273) translate(64.22469135802469 43.544444444444444)"/><use xlink:href="#n" transform="matrix(1,0,0,1,138.25421300230653,557.7727272727273) translate(117.12592592592591 43.544444444444444)"/><use xlink:href="#l" transform="matrix(1,0,0,1,138.25421300230653,642.5909090909092) translate(11.2 43.544444444444444)"/><use xlink:href="#o" transform="matrix(1,0,0,1,138.25421300230653,642.5909090909092) translate(64.22469135802469 43.544444444444444)"/><g><use xlink:href="#p" transform="matrix(1,0,0,1,138.25421300230653,727.409090909091) translate(11.2 43.544444444444444)"/><use xlink:href="#h" transform="matrix(1,0,0,1,138.25421300230653,727.409090909091) translate(107.37283950617284 43.544444444444444)"/></g><g><use xlink:href="#q" transform="matrix(1,0,0,1,138.25421300230653,812.227272727273) translate(11.2 43.544444444444444)"/><use xlink:href="#r" transform="matrix(1,0,0,1,138.25421300230653,812.227272727273) translate(150.3975308641975 43.544444444444444)"/></g><g><use xlink:href="#s" transform="matrix(1,0,0,1,138.25421300230653,897.0454545454547) translate(11.2 43.544444444444444)"/></g><g><use xlink:href="#t" transform="matrix(1,0,0,1,138.25421300230653,981.8636363636365) translate(11.2 43.544444444444444)"/><use xlink:href="#u" transform="matrix(1,0,0,1,138.25421300230653,981.8636363636365) translate(103.73086419753086 43.544444444444444)"/><use xlink:href="#v" transform="matrix(1,0,0,1,138.25421300230653,981.8636363636365) translate(116.07654320987655 43.544444444444444)"/></g><g><use xlink:href="#w" transform="matrix(1,0,0,1,138.25421300230653,1066.6818181818182) translate(11.2 43.544444444444444)"/></g><defs><path fill="#fff" d="M176-78C186 10 51 31 16-35c-5-9-9-19-11-32l52-8c4 21 12 37 35 38 23 0 32-16 32-40v-130H75v-41h101v170" id="x"/><path fill="#fff" d="M133-34C117-15 103 5 69 4 32 3 11-16 11-54c-1-60 55-63 116-61 1-26-3-47-28-47-18 1-26 9-28 27l-52-2c7-38 36-58 82-57s74 22 75 68l1 82c-1 14 12 18 25 15v27c-30 8-71 5-69-32zm-48 3c29 0 43-24 42-57-32 0-66-3-65 30 0 17 8 27 23 27" id="y"/><path fill="#fff" d="M135-194c87-1 58 113 63 194h-50c-7-57 23-157-34-157-59 0-34 97-39 157H25l-1-190h47c2 12-1 28 3 38 12-26 28-41 61-42" id="z"/><g id="a"><use transform="matrix(0.06172839506172839,0,0,0.06172839506172839,0,0)" xlink:href="#x"/><use transform="matrix(0.06172839506172839,0,0,0.06172839506172839,12.345679012345679,0)" xlink:href="#y"/><use transform="matrix(0.06172839506172839,0,0,0.06172839506172839,24.691358024691358,0)" xlink:href="#z"/></g><path fill="#fff" d="M76-208v77h127v40H76V0H24v-248h183v40H76" id="A"/><path fill="#fff" d="M185-48c-13 30-37 53-82 52C43 2 14-33 14-96s30-98 90-98c62 0 83 45 84 108H66c0 31 8 55 39 56 18 0 30-7 34-22zm-45-69c5-46-57-63-70-21-2 6-4 13-4 21h74" id="B"/><path fill="#fff" d="M135-194c52 0 70 43 70 98 0 56-19 99-73 100-30 1-46-15-58-35L72 0H24l1-261h50v104c11-23 29-37 60-37zM114-30c31 0 40-27 40-66 0-37-7-63-39-63s-41 28-41 65c0 36 8 64 40 64" id="C"/><g id="b"><use transform="matrix(0.06172839506172839,0,0,0.06172839506172839,0,0)" xlink:href="#A"/><use transform="matrix(0.06172839506172839,0,0,0.06172839506172839,13.518518518518517,0)" xlink:href="#B"/><use transform="matrix(0.06172839506172839,0,0,0.06172839506172839,25.864197530864196,0)" xlink:href="#C"/></g><path fill="#fff" d="M230 0l2-204L168 0h-37L68-204 70 0H24v-248h70l56 185 57-185h69V0h-46" id="D"/><path fill="#fff" d="M135-150c-39-12-60 13-60 57V0H25l-1-190h47c2 13-1 29 3 40 6-28 27-53 61-41v41" id="E"/><path fill="#fff" d="M190-63c-7 42-38 67-86 67-59 0-84-38-90-98-12-110 154-137 174-36l-49 2c-2-19-15-32-35-32-30 0-35 28-38 64-6 74 65 87 74 30" id="F"/><path fill="#fff" d="M114-157C55-157 80-60 75 0H25v-261h50l-1 109c12-26 28-41 61-42 86-1 58 113 63 194h-50c-7-57 23-157-34-157" id="G"/><g id="c"><use transform="matrix(0.06172839506172839,0,0,0.06172839506172839,0,0)" xlink:href="#D"/><use transform="matrix(0.06172839506172839,0,0,0.06172839506172839,18.456790123456788,0)" xlink:href="#y"/><use transform="matrix(0.06172839506172839,0,0,0.06172839506172839,30.80246913580247,0)" xlink:href="#E"/><use transform="matrix(0.06172839506172839,0,0,0.06172839506172839,39.44444444444444,0)" xlink:href="#F"/><use transform="matrix(0.06172839506172839,0,0,0.06172839506172839,51.79012345679012,0)" xlink:href="#G"/></g><path fill="#fff" d="M199 0l-22-63H83L61 0H9l90-248h61L250 0h-51zm-33-102l-36-108c-10 38-24 72-36 108h72" id="H"/><path fill="#fff" d="M135-194c53 0 70 44 70 98 0 56-19 98-73 100-31 1-45-17-59-34 3 33 2 69 2 105H25l-1-265h48c2 10 0 23 3 31 11-24 29-35 60-35zM114-30c33 0 39-31 40-66 0-38-9-64-40-64-56 0-55 130 0 130" id="I"/><path fill="#fff" d="M25-224v-37h50v37H25zM25 0v-190h50V0H25" id="J"/><path fill="#fff" d="M25 0v-261h50V0H25" id="K"/><g id="d"><use transform="matrix(0.06172839506172839,0,0,0.06172839506172839,0,0)" xlink:href="#H"/><use transform="matrix(0.06172839506172839,0,0,0.06172839506172839,15.987654320987653,0)" xlink:href="#I"/><use transform="matrix(0.06172839506172839,0,0,0.06172839506172839,29.50617283950617,0)" xlink:href="#E"/><use transform="matrix(0.06172839506172839,0,0,0.06172839506172839,38.148148148148145,0)" xlink:href="#J"/><use transform="matrix(0.06172839506172839,0,0,0.06172839506172839,44.32098765432099,0)" xlink:href="#K"/></g><path fill="#fff" d="M123 10C108 53 80 86 19 72V37c35 8 53-11 59-39L3-190h52l48 148c12-52 28-100 44-148h51" id="L"/><g id="e"><use transform="matrix(0.06172839506172839,0,0,0.06172839506172839,0,0)" xlink:href="#D"/><use transform="matrix(0.06172839506172839,0,0,0.06172839506172839,18.456790123456788,0)" xlink:href="#y"/><use transform="matrix(0.06172839506172839,0,0,0.06172839506172839,30.80246913580247,0)" xlink:href="#L"/></g><path fill="#fff" d="M85 4C-2 5 27-109 22-190h50c7 57-23 150 33 157 60-5 35-97 40-157h50l1 190h-47c-2-12 1-28-3-38-12 25-28 42-61 42" id="M"/><g id="f"><use transform="matrix(0.06172839506172839,0,0,0.06172839506172839,0,0)" xlink:href="#x"/><use transform="matrix(0.06172839506172839,0,0,0.06172839506172839,12.345679012345679,0)" xlink:href="#M"/><use transform="matrix(0.06172839506172839,0,0,0.06172839506172839,25.864197530864196,0)" xlink:href="#z"/><use transform="matrix(0.06172839506172839,0,0,0.06172839506172839,39.382716049382715,0)" xlink:href="#B"/></g><path fill="#333" d="M14 0l48-248h34L48 0H14" id="N"/><path fill="#333" d="M238-179c0 84-86 86-175 82L45 0H11l48-248c82 0 179-12 179 69zm-34 1c0-53-64-42-116-43l-19 98c63 0 135 9 135-55" id="O"/><path fill="#333" d="M20-101c0-91 52-143 145-150 126-9 127 168 53 223-23 17-55 32-93 32C57 4 20-33 20-101zm216-33c5-57-18-91-73-90-77 1-110 51-110 125 0 49 23 75 73 75 72-1 104-45 110-110" id="P"/><g id="g"><use transform="matrix(0.06172839506172839,0,0,0.06172839506172839,0,0)" xlink:href="#N"/><use transform="matrix(0.06172839506172839,0,0,0.06172839506172839,6.172839506172839,0)" xlink:href="#O"/><use transform="matrix(0.06172839506172839,0,0,0.06172839506172839,20.98765432098765,0)" xlink:href="#P"/></g><path fill="#333" d="M125-24c46 0 70-25 89-51l25 16C214-24 183 4 123 4 8 4-5-146 60-208c32-50 158-61 191-5 5 7 9 14 11 22l-32 10c-9-28-33-43-69-43-74 0-108 51-108 125 0 46 24 75 72 75" id="Q"/><path fill="#333" d="M67-158c15-20 31-36 64-36 94 0 33 127 27 194h-32l25-140c3-38-53-32-70-12C52-117 51-51 37 0H6l51-261h31" id="R"/><path fill="#333" d="M165-48c-4 18 1 34 23 27l-3 20c-29 8-62 0-52-35h-2C116-14 99 4 63 4 30 4 8-16 8-49c0-68 71-67 138-67 10-26 0-56-31-54-26 1-42 9-47 31l-32-5c8-67 160-71 144 15-5 28-9 54-15 81zM42-50c3 52 80 24 89-6 7-12 7-24 11-38-47 1-103-4-100 44" id="S"/><path fill="#333" d="M66-151c12-25 30-51 66-40l-6 26C45-176 58-65 38 0H6l36-190h30" id="T"/><path fill="#333" d="M51-54c-9 22 5 41 31 30L79-1C43 14 10-4 19-52l22-115H19l5-23h22l19-43h21l-9 43h35l-4 23H73" id="U"/><g id="h"><use transform="matrix(0.06172839506172839,0,0,0.06172839506172839,0,0)" xlink:href="#Q"/><use transform="matrix(0.06172839506172839,0,0,0.06172839506172839,15.987654320987653,0)" xlink:href="#R"/><use transform="matrix(0.06172839506172839,0,0,0.06172839506172839,28.333333333333332,0)" xlink:href="#S"/><use transform="matrix(0.06172839506172839,0,0,0.06172839506172839,40.67901234567901,0)" xlink:href="#T"/><use transform="matrix(0.06172839506172839,0,0,0.06172839506172839,48.02469135802469,0)" xlink:href="#U"/></g><path fill="#333" d="M52-101C46-14 166-7 216-51l9-45h-74l6-28h105l-18 87C217-12 181 4 130 4 60 4 18-31 18-101c0-106 78-167 188-146 30 6 48 27 59 54l-34 9c-10-26-31-41-67-40-75 1-107 50-112 123" id="V"/><path fill="#333" d="M67-158c22-48 132-52 116 29L158 0h-32l25-140c3-38-53-32-70-12C52-117 51-52 38 0H6l36-190h30" id="W"/><g id="i"><use transform="matrix(0.06172839506172839,0,0,0.06172839506172839,0,0)" xlink:href="#V"/><use transform="matrix(0.06172839506172839,0,0,0.06172839506172839,17.28395061728395,0)" xlink:href="#S"/><use transform="matrix(0.06172839506172839,0,0,0.06172839506172839,29.629629629629626,0)" xlink:href="#W"/><use transform="matrix(0.06172839506172839,0,0,0.06172839506172839,41.9753086419753,0)" xlink:href="#U"/><use transform="matrix(0.06172839506172839,0,0,0.06172839506172839,48.148148148148145,0)" xlink:href="#U"/></g><path fill="#333" d="M30-147c31-64 166-65 159 27C183-49 158 1 86 4 9 8 1-88 30-147zM88-20c53 0 68-48 68-100 0-31-11-51-44-50-52 1-68 46-68 97 0 32 13 53 44 53" id="X"/><path fill="#333" d="M111-194c62-3 86 47 72 106H45c-7 38 6 69 45 68 27-1 43-14 53-32l24 11C152-15 129 4 87 4 38 3 12-23 12-71c0-70 32-119 99-123zm44 81c14-66-71-72-95-28-4 8-8 17-11 28h106" id="Y"/><path fill="#333" d="M124 0L87-78 21 0h-35l86-98-46-92h33l34 74 61-74h37l-83 92 50 98h-34" id="Z"/><g id="j"><use transform="matrix(0.06172839506172839,0,0,0.06172839506172839,0,0)" xlink:href="#Q"/><use transform="matrix(0.06172839506172839,0,0,0.06172839506172839,15.987654320987653,0)" xlink:href="#X"/><use transform="matrix(0.06172839506172839,0,0,0.06172839506172839,28.333333333333332,0)" xlink:href="#W"/><use transform="matrix(0.06172839506172839,0,0,0.06172839506172839,40.67901234567901,0)" xlink:href="#U"/><use transform="matrix(0.06172839506172839,0,0,0.06172839506172839,46.851851851851855,0)" xlink:href="#Y"/><use transform="matrix(0.06172839506172839,0,0,0.06172839506172839,59.19753086419753,0)" xlink:href="#Z"/><use transform="matrix(0.06172839506172839,0,0,0.06172839506172839,70.30864197530865,0)" xlink:href="#U"/></g><path fill="#333" d="M248-139C247-14 144 9 11 0l48-248c105-6 190 8 189 109zm-34 0c1-70-52-87-126-82L50-27c98 7 163-21 164-112" id="aa"/><path fill="#333" d="M50-231l6-30h32l-6 30H50zM6 0l37-190h31L37 0H6" id="ab"/><path fill="#333" d="M103-194c29 0 47 14 56 36 2-11 5-23 8-32h30L160-5C157 61 82 97 21 62 9 55 4 45 1 30l28-7c7 42 83 31 92-3 4-16 9-38 13-55-13 20-29 36-62 36-40 0-60-25-60-64 0-71 23-131 91-131zm4 24c-53 0-58 54-61 104-2 27 10 44 36 44 49 0 65-50 67-102 1-29-15-46-42-46" id="ac"/><path fill="#333" d="M248-111c6-24 9-61-24-58-72 9-57 108-77 169h-31l26-142c3-37-50-30-64-10C52-115 50-51 37 0H6l36-190h30c-1 10-6 24-4 32 13-43 101-52 105 5 13-22 29-41 61-41 90 0 28 129 23 194h-31" id="ad"/><g id="k"><use transform="matrix(0.06172839506172839,0,0,0.06172839506172839,0,0)" xlink:href="#aa"/><use transform="matrix(0.06172839506172839,0,0,0.06172839506172839,15.987654320987653,0)" xlink:href="#ab"/><use transform="matrix(0.06172839506172839,0,0,0.06172839506172839,20.864197530864196,0)" xlink:href="#S"/><use transform="matrix(0.06172839506172839,0,0,0.06172839506172839,33.20987654320987,0)" xlink:href="#ac"/><use transform="matrix(0.06172839506172839,0,0,0.06172839506172839,45.55555555555555,0)" xlink:href="#T"/><use transform="matrix(0.06172839506172839,0,0,0.06172839506172839,52.90123456790123,0)" xlink:href="#S"/><use transform="matrix(0.06172839506172839,0,0,0.06172839506172839,65.24691358024691,0)" xlink:href="#ad"/></g><g id="l"><use transform="matrix(0.06172839506172839,0,0,0.06172839506172839,0,0)" xlink:href="#aa"/><use transform="matrix(0.06172839506172839,0,0,0.06172839506172839,15.987654320987653,0)" xlink:href="#S"/><use transform="matrix(0.06172839506172839,0,0,0.06172839506172839,28.333333333333332,0)" xlink:href="#U"/><use transform="matrix(0.06172839506172839,0,0,0.06172839506172839,34.50617283950617,0)" xlink:href="#S"/></g><path fill="#333" d="M87-220l-18 92h140l-5 28H64L45 0H11l48-248h178l-5 28H87" id="ae"/><path fill="#333" d="M6 0l50-261h32L37 0H6" id="af"/><path fill="#333" d="M188 0h-37l-8-164L71 0H34L18-190h31l8 164 75-164h34l8 164 74-164h31" id="ag"/><g id="m"><use transform="matrix(0.06172839506172839,0,0,0.06172839506172839,0,0)" xlink:href="#ae"/><use transform="matrix(0.06172839506172839,0,0,0.06172839506172839,13.518518518518517,0)" xlink:href="#af"/><use transform="matrix(0.06172839506172839,0,0,0.06172839506172839,18.39506172839506,0)" xlink:href="#X"/><use transform="matrix(0.06172839506172839,0,0,0.06172839506172839,30.74074074074074,0)" xlink:href="#ag"/></g><g id="n"><use transform="matrix(0.06172839506172839,0,0,0.06172839506172839,0,0)" xlink:href="#aa"/><use transform="matrix(0.06172839506172839,0,0,0.06172839506172839,15.987654320987653,0)" xlink:href="#ab"/><use transform="matrix(0.06172839506172839,0,0,0.06172839506172839,20.864197530864196,0)" xlink:href="#S"/><use transform="matrix(0.06172839506172839,0,0,0.06172839506172839,33.20987654320987,0)" xlink:href="#ac"/><use transform="matrix(0.06172839506172839,0,0,0.06172839506172839,45.55555555555555,0)" xlink:href="#T"/><use transform="matrix(0.06172839506172839,0,0,0.06172839506172839,52.90123456790123,0)" xlink:href="#S"/><use transform="matrix(0.06172839506172839,0,0,0.06172839506172839,65.24691358024691,0)" xlink:href="#ad"/></g><path fill="#333" d="M44-68c0 29 11 47 38 47 30 0 42-19 51-41l28 9C148-21 126 4 82 4 31 4 10-29 12-85c3-77 74-140 146-93 12 8 15 23 18 40l-31 5c-1-22-13-36-36-36-52 0-65 49-65 101" id="ah"/><path fill="#333" d="M198-190L69 30C53 58 25 83-20 72c4-11-1-27 19-22 33-1 43-29 59-52L20-190h32L79-34l84-156h35" id="ai"/><g id="o"><use transform="matrix(0.06172839506172839,0,0,0.06172839506172839,0,0)" xlink:href="#aa"/><use transform="matrix(0.06172839506172839,0,0,0.06172839506172839,15.987654320987653,0)" xlink:href="#ab"/><use transform="matrix(0.06172839506172839,0,0,0.06172839506172839,20.864197530864196,0)" xlink:href="#ah"/><use transform="matrix(0.06172839506172839,0,0,0.06172839506172839,31.975308641975307,0)" xlink:href="#U"/><use transform="matrix(0.06172839506172839,0,0,0.06172839506172839,38.148148148148145,0)" xlink:href="#ab"/><use transform="matrix(0.06172839506172839,0,0,0.06172839506172839,43.02469135802469,0)" xlink:href="#X"/><use transform="matrix(0.06172839506172839,0,0,0.06172839506172839,55.37037037037037,0)" xlink:href="#W"/><use transform="matrix(0.06172839506172839,0,0,0.06172839506172839,67.71604938271605,0)" xlink:href="#S"/><use transform="matrix(0.06172839506172839,0,0,0.06172839506172839,80.06172839506173,0)" xlink:href="#T"/><use transform="matrix(0.06172839506172839,0,0,0.06172839506172839,87.40740740740742,0)" xlink:href="#ai"/></g><path fill="#333" d="M194-120c59 52 2 134-86 124-53-6-90-18-98-63l31-7c8 30 29 43 70 43 46 0 84-17 71-62-32-43-135-20-137-98-3-89 178-90 191-16l-30 9c-8-48-127-53-127 5 0 53 81 35 115 65" id="aj"/><path fill="#333" d="M67 3c-93-2-31-127-26-193h32L48-50c-3 39 53 32 70 12 30-34 30-101 43-152h32L157 0h-30c1-10 6-24 4-33-14 20-29 37-64 36" id="ak"/><g id="p"><use transform="matrix(0.06172839506172839,0,0,0.06172839506172839,0,0)" xlink:href="#aj"/><use transform="matrix(0.06172839506172839,0,0,0.06172839506172839,14.814814814814813,0)" xlink:href="#U"/><use transform="matrix(0.06172839506172839,0,0,0.06172839506172839,20.98765432098765,0)" xlink:href="#T"/><use transform="matrix(0.06172839506172839,0,0,0.06172839506172839,28.33333333333333,0)" xlink:href="#ak"/><use transform="matrix(0.06172839506172839,0,0,0.06172839506172839,40.679012345679006,0)" xlink:href="#ah"/><use transform="matrix(0.06172839506172839,0,0,0.06172839506172839,51.79012345679011,0)" xlink:href="#U"/><use transform="matrix(0.06172839506172839,0,0,0.06172839506172839,57.962962962962955,0)" xlink:href="#ak"/><use transform="matrix(0.06172839506172839,0,0,0.06172839506172839,70.30864197530863,0)" xlink:href="#T"/><use transform="matrix(0.06172839506172839,0,0,0.06172839506172839,77.65432098765432,0)" xlink:href="#Y"/></g><g id="q"><use transform="matrix(0.06172839506172839,0,0,0.06172839506172839,0,0)" xlink:href="#O"/><use transform="matrix(0.06172839506172839,0,0,0.06172839506172839,14.814814814814813,0)" xlink:href="#T"/><use transform="matrix(0.06172839506172839,0,0,0.06172839506172839,22.160493827160494,0)" xlink:href="#X"/><use transform="matrix(0.06172839506172839,0,0,0.06172839506172839,34.50617283950617,0)" xlink:href="#ac"/><use transform="matrix(0.06172839506172839,0,0,0.06172839506172839,46.85185185185185,0)" xlink:href="#T"/><use transform="matrix(0.06172839506172839,0,0,0.06172839506172839,54.197530864197525,0)" xlink:href="#S"/><use transform="matrix(0.06172839506172839,0,0,0.06172839506172839,66.5432098765432,0)" xlink:href="#ad"/><use transform="matrix(0.06172839506172839,0,0,0.06172839506172839,84.99999999999999,0)" xlink:href="#ad"/><use transform="matrix(0.06172839506172839,0,0,0.06172839506172839,103.45679012345677,0)" xlink:href="#ab"/><use transform="matrix(0.06172839506172839,0,0,0.06172839506172839,108.33333333333331,0)" xlink:href="#W"/><use transform="matrix(0.06172839506172839,0,0,0.06172839506172839,120.679012345679,0)" xlink:href="#ac"/></g><path fill="#333" d="M133-28C103 26-5 8 13-77c13-62 24-115 90-117 29-1 46 15 56 35l19-102h32L160 0h-30zM45-64c-2 27 10 43 35 43 54-1 69-50 69-103 0-29-15-46-42-46-53-1-58 58-62 106" id="al"/><path fill="#333" d="M55-144c13 50 104 24 104 88C159 21 15 23 1-39l26-10c6 40 102 42 102-4-13-50-104-23-104-87 0-71 143-71 148-8l-29 4c-5-35-85-37-89 0" id="am"/><g id="r"><use transform="matrix(0.06172839506172839,0,0,0.06172839506172839,0,0)" xlink:href="#O"/><use transform="matrix(0.06172839506172839,0,0,0.06172839506172839,14.814814814814813,0)" xlink:href="#S"/><use transform="matrix(0.06172839506172839,0,0,0.06172839506172839,27.160493827160494,0)" xlink:href="#T"/><use transform="matrix(0.06172839506172839,0,0,0.06172839506172839,34.50617283950617,0)" xlink:href="#S"/><use transform="matrix(0.06172839506172839,0,0,0.06172839506172839,46.85185185185185,0)" xlink:href="#al"/><use transform="matrix(0.06172839506172839,0,0,0.06172839506172839,59.197530864197525,0)" xlink:href="#ab"/><use transform="matrix(0.06172839506172839,0,0,0.06172839506172839,64.07407407407406,0)" xlink:href="#ac"/><use transform="matrix(0.06172839506172839,0,0,0.06172839506172839,76.41975308641975,0)" xlink:href="#ad"/><use transform="matrix(0.06172839506172839,0,0,0.06172839506172839,94.87654320987653,0)" xlink:href="#am"/></g><path fill="#333" d="M11 0l48-248h184l-5 28H87l-15 79h140l-5 27H67L50-27h158l-5 27H11" id="an"/><path fill="#333" d="M89 0H52L20-190h33L74-25l89-165h34" id="ao"/><g id="s"><use transform="matrix(0.06172839506172839,0,0,0.06172839506172839,0,0)" xlink:href="#an"/><use transform="matrix(0.06172839506172839,0,0,0.06172839506172839,14.814814814814813,0)" xlink:href="#ao"/><use transform="matrix(0.06172839506172839,0,0,0.06172839506172839,25.925925925925924,0)" xlink:href="#S"/><use transform="matrix(0.06172839506172839,0,0,0.06172839506172839,38.2716049382716,0)" xlink:href="#af"/><use transform="matrix(0.06172839506172839,0,0,0.06172839506172839,43.148148148148145,0)" xlink:href="#ak"/><use transform="matrix(0.06172839506172839,0,0,0.06172839506172839,55.49382716049382,0)" xlink:href="#S"/><use transform="matrix(0.06172839506172839,0,0,0.06172839506172839,67.8395061728395,0)" xlink:href="#U"/><use transform="matrix(0.06172839506172839,0,0,0.06172839506172839,74.01234567901234,0)" xlink:href="#ab"/><use transform="matrix(0.06172839506172839,0,0,0.06172839506172839,78.88888888888889,0)" xlink:href="#X"/><use transform="matrix(0.06172839506172839,0,0,0.06172839506172839,91.23456790123457,0)" xlink:href="#W"/></g><path fill="#333" d="M76-167L44 0H12l33-167H18l4-23h27c3-47 25-81 82-69l-4 24c-35-8-44 15-46 45h37l-5 23H76" id="ap"/><g id="t"><use transform="matrix(0.06172839506172839,0,0,0.06172839506172839,0,0)" xlink:href="#N"/><use transform="matrix(0.06172839506172839,0,0,0.06172839506172839,6.172839506172839,0)" xlink:href="#W"/><use transform="matrix(0.06172839506172839,0,0,0.06172839506172839,18.51851851851852,0)" xlink:href="#U"/><use transform="matrix(0.06172839506172839,0,0,0.06172839506172839,24.691358024691358,0)" xlink:href="#Y"/><use transform="matrix(0.06172839506172839,0,0,0.06172839506172839,37.03703703703704,0)" xlink:href="#T"/><use transform="matrix(0.06172839506172839,0,0,0.06172839506172839,44.382716049382715,0)" xlink:href="#ap"/><use transform="matrix(0.06172839506172839,0,0,0.06172839506172839,50.55555555555556,0)" xlink:href="#S"/><use transform="matrix(0.06172839506172839,0,0,0.06172839506172839,62.901234567901234,0)" xlink:href="#ah"/><use transform="matrix(0.06172839506172839,0,0,0.06172839506172839,74.01234567901234,0)" xlink:href="#Y"/></g><path fill="#333" d="M-20 4l123-265h28L8 4h-28" id="aq"/><use transform="matrix(0.06172839506172839,0,0,0.06172839506172839,0,0)" xlink:href="#aq" id="u"/><path fill="#333" d="M68-162c25-46 127-43 121 31C183-60 169 1 98 4 69 5 53-11 43-31L36 0H5l52-261h31zm88 36c2-27-9-43-34-43-55 0-70 51-70 103 0 29 15 45 43 46 52 0 58-58 61-106" id="ar"/><g id="v"><use transform="matrix(0.06172839506172839,0,0,0.06172839506172839,0,0)" xlink:href="#aj"/><use transform="matrix(0.06172839506172839,0,0,0.06172839506172839,14.814814814814813,0)" xlink:href="#U"/><use transform="matrix(0.06172839506172839,0,0,0.06172839506172839,20.98765432098765,0)" xlink:href="#X"/><use transform="matrix(0.06172839506172839,0,0,0.06172839506172839,33.33333333333333,0)" xlink:href="#T"/><use transform="matrix(0.06172839506172839,0,0,0.06172839506172839,40.679012345679006,0)" xlink:href="#ai"/><use transform="matrix(0.06172839506172839,0,0,0.06172839506172839,51.79012345679011,0)" xlink:href="#ar"/><use transform="matrix(0.06172839506172839,0,0,0.06172839506172839,64.1358024691358,0)" xlink:href="#X"/><use transform="matrix(0.06172839506172839,0,0,0.06172839506172839,76.48148148148148,0)" xlink:href="#S"/><use transform="matrix(0.06172839506172839,0,0,0.06172839506172839,88.82716049382717,0)" xlink:href="#T"/><use transform="matrix(0.06172839506172839,0,0,0.06172839506172839,96.17283950617285,0)" xlink:href="#al"/></g><g id="w"><use transform="matrix(0.06172839506172839,0,0,0.06172839506172839,0,0)" xlink:href="#Q"/><use transform="matrix(0.06172839506172839,0,0,0.06172839506172839,15.987654320987653,0)" xlink:href="#X"/><use transform="matrix(0.06172839506172839,0,0,0.06172839506172839,28.333333333333332,0)" xlink:href="#al"/><use transform="matrix(0.06172839506172839,0,0,0.06172839506172839,40.67901234567901,0)" xlink:href="#ab"/><use transform="matrix(0.06172839506172839,0,0,0.06172839506172839,45.55555555555556,0)" xlink:href="#W"/><use transform="matrix(0.06172839506172839,0,0,0.06172839506172839,57.901234567901234,0)" xlink:href="#ac"/></g></defs></g></svg>